#!OML:ASF E:\Steps\Project 1\Capture day 1\Session 2\Subject.ASF
:FULLY-SPECIFIED
:DEGREES
115
root 16.8484 19.6585 20.9329 -153.988 -6.78411 177.251
lowerback -25.9156 -1.36607 -6.03841
upperback -0.222691 -0.276155 -0.216826
thorax 14.3622 -0.683674 3.09111
lowerneck -5.25913 2.62457 1.2803
upperneck 11.4424 3.10496 0.444817
head 4.76206 1.50062 0.0936882
rclavicle -4.02539e-015 2.07233e-014
rhumerus -36.3505 -19.268 -78.2147
rradius 34.7922
rwrist -4.1065
rhand -6.54977 -51.5706
rfingers 7.12502
rthumb 19.3038 -80.6325
lclavicle -4.02539e-015 2.07233e-014
lhumerus -30.4378 1.66567 81.4566
lradius 26.5583
lwrist -2.85021
lhand -20.5677 -11.0749
lfingers 7.12502
lthumb 5.79178 18.8259
rfemur -26.0113 5.86593 21.112
rtibia 12.5736
rfoot -21.967 -7.35745
rtoes -18.9419
lfemur -29.3062 -10.3882 -20.443
ltibia 17.3973
lfoot -10.567 1.55625
ltoes -36.9132
116
root 16.8523 19.6542 20.9334 -154.017 -6.90096 177.347
lowerback -25.7563 -1.32042 -5.84964
upperback -0.151886 -0.271969 -0.18923
thorax 14.3567 -0.665166 3.01718
lowerneck -5.34368 2.69435 1.33348
upperneck 11.4727 3.21043 0.314276
head 4.795 1.54917 0.0478015
rclavicle 2.37051e-014 5.76476e-015
rhumerus -36.2327 -18.8366 -78.5341
rradius 35.0345
rwrist -3.81213
rhand -7.34441 -52.6203
rfingers 7.12502
rthumb 18.5396 -81.7568
lclavicle 2.37051e-014 5.76476e-015
lhumerus -30.3718 1.71135 81.5068
lradius 26.7022
lwrist -2.98656
lhand -20.5772 -11.1721
lfingers 7.12502
lthumb 5.78254 18.729
rfemur -26.1004 5.82376 21.2773
rtibia 12.7964
rfoot -21.6982 -7.40549
rtoes -20.2071
lfemur -29.5059 -10.4226 -20.2986
ltibia 17.8058
lfoot -10.4624 1.42604
ltoes -33.3914
117
root 16.8573 19.6487 20.9371 -154.009 -7.03957 177.419
lowerback -25.6341 -1.31534 -5.70202
upperback -0.0899608 -0.311032 -0.141267
thorax 14.3659 -0.670981 2.97416
lowerneck -5.36146 2.7532 1.26858
upperneck 11.5568 3.2972 0.274199
head 4.82969 1.58558 0.0518134
rclavicle 3.10601e-015 -2.29596e-014
rhumerus -36.1793 -18.6726 -78.5733
rradius 35.0355
rwrist -3.83572
rhand -8.05113 -51.3221
rfingers 7.12502
rthumb 17.8596 -80.5221
lclavicle 3.10601e-015 -2.29596e-014
lhumerus -30.345 1.72631 81.5945
lradius 26.857
lwrist -3.0125
lhand -20.743 -11.2624
lfingers 7.12502
lthumb 5.62245 18.6431
rfemur -26.2451 5.68116 21.4247
rtibia 12.9719
rfoot -20.8836 -7.36555
rtoes -21.007
lfemur -29.8512 -10.5655 -20.1182
ltibia 18.4007
lfoot -10.8453 1.45178
ltoes -33.1534
118
root 16.8624 19.644 20.9458 -153.931 -7.16256 177.465
lowerback -25.5197 -1.32964 -5.58923
upperback -0.0751493 -0.371347 -0.0976076
thorax 14.3248 -0.688784 2.93801
lowerneck -5.34478 2.83227 1.2463
upperneck 11.5547 3.40185 0.310985
head 4.8248 1.638 0.0741903
rclavicle -6.37353e-015 -1.49089e-015
rhumerus -36.1519 -18.2729 -78.709
rradius 35.3286
rwrist -4.17098
rhand -7.83381 -54.052
rfingers 7.12502
rthumb 18.0687 -83.2327
lclavicle -6.37353e-015 -1.49089e-015
lhumerus -30.3286 1.48305 81.7028
lradius 27.0166
lwrist -2.74595
lhand -20.6814 -11.2588
lfingers 7.12502
lthumb 5.68192 18.645
rfemur -26.6211 5.769 21.4879
rtibia 13.4828
rfoot -22.2315 -7.51592
rtoes -19.431
lfemur -30.3868 -10.7899 -19.9252
ltibia 19.1485
lfoot -11.5985 1.64926
ltoes -36.3029
119
root 16.8686 19.6423 20.9515 -153.985 -7.34716 177.457
lowerback -25.2741 -1.34589 -5.54088
upperback -0.0423333 -0.416202 -0.0721219
thorax 14.2306 -0.700732 2.92437
lowerneck -5.23978 2.87393 1.25152
upperneck 11.6093 3.44676 0.353792
head 4.82285 1.65988 0.0890792
rclavicle 2.08724e-014 -1.10325e-014
rhumerus -36.2215 -17.9634 -78.7683
rradius 35.4356
rwrist -4.44407
rhand -8.17608 -50.1948
rfingers 7.12502
rthumb 17.7394 -79.4056
lclavicle 2.08724e-014 -1.10325e-014
lhumerus -30.3792 1.23362 81.8005
lradius 27.2443
lwrist -2.55418
lhand -20.4687 -11.0472
lfingers 7.12502
lthumb 5.88735 18.851
rfemur -26.8429 6.04987 21.4705
rtibia 14.0935
rfoot -22.0689 -7.97161
rtoes -20.4991
lfemur -30.7148 -11.0704 -19.7977
ltibia 19.769
lfoot -11.2613 1.51875
ltoes -32.2882
120
root 16.8751 19.6414 20.9525 -154.188 -7.6272 177.372
lowerback -24.8977 -1.37736 -5.55141
upperback 0.0435668 -0.46076 -0.0620782
thorax 14.1264 -0.713755 2.92783
lowerneck -5.06387 2.90139 1.06713
upperneck 11.6971 3.47376 0.510353
head 4.81149 1.66855 0.174075
rclavicle 1.38528e-014 -1.35671e-014
rhumerus -36.3109 -17.945 -78.6909
rradius 35.6477
rwrist -4.3237
rhand -7.9231 -48.8643
rfingers 7.12502
rthumb 17.9828 -78.0529
lclavicle 1.38528e-014 -1.35671e-014
lhumerus -30.4735 1.23492 81.8811
lradius 27.5036
lwrist -2.70159
lhand -20.2608 -10.9597
lfingers 7.12502
lthumb 6.08807 18.9328
rfemur -26.7068 6.28503 21.3983
rtibia 14.3609
rfoot -21.4418 -8.55869
rtoes -20.9777
lfemur -30.814 -11.4207 -19.7809
ltibia 20.3787
lfoot -11.5488 1.56155
ltoes -32.9075
121
root 16.8789 19.6368 20.9571 -154.256 -7.77792 177.334
lowerback -24.6012 -1.38925 -5.51532
upperback 0.091801 -0.497287 -0.0324682
thorax 14.0205 -0.722354 2.92972
lowerneck -5.17376 2.8166 1.21453
upperneck 11.79 3.36758 0.296978
head 4.87621 1.61132 0.0720139
rclavicle -1.99406e-014 -4.16205e-015
rhumerus -36.2485 -18.081 -78.5595
rradius 35.6548
rwrist -4.14254
rhand -7.60139 -51.7327
rfingers 7.12502
rthumb 18.2924 -80.8926
lclavicle -1.99406e-014 -4.16205e-015
lhumerus -30.5076 1.38067 81.9591
lradius 27.6724
lwrist -2.80568
lhand -20.269 -10.9589
lfingers 7.12502
lthumb 6.08008 18.9338
rfemur -26.8068 6.34962 21.3799
rtibia 14.6614
rfoot -22.6977 -8.82581
rtoes -18.8189
lfemur -31.1663 -11.6593 -19.7456
ltibia 21.1927
lfoot -12.4335 1.79273
ltoes -36.8435
122
root 16.883 19.6291 20.9631 -154.222 -7.90686 177.31
lowerback -24.4021 -1.3954 -5.45166
upperback 0.128604 -0.528218 -0.0269454
thorax 13.9544 -0.727716 2.88956
lowerneck -5.35028 2.74926 1.49477
upperneck 11.8104 3.27612 0.0904715
head 4.93067 1.57018 -0.0504519
rclavicle 2.98045e-014 4.47266e-016
rhumerus -36.102 -18.3791 -78.3966
rradius 35.3429
rwrist -3.71245
rhand -7.37405 -50.7504
rfingers 7.12502
rthumb 18.511 -79.8896
lclavicle 2.98045e-014 4.47266e-016
lhumerus -30.3998 1.31781 82.0041
lradius 27.7481
lwrist -2.60044
lhand -20.3255 -10.9576
lfingers 7.12502
lthumb 6.02561 18.9367
rfemur -26.9901 6.29324 21.3906
rtibia 14.9022
rfoot -21.6763 -9.00986
rtoes -21.5269
lfemur -31.6612 -11.8545 -19.6766
ltibia 22.0091
lfoot -12.3822 1.61028
ltoes -34.1855
123
root 16.8874 19.6212 20.9636 -154.246 -8.11638 177.281
lowerback -24.2746 -1.41061 -5.357
upperback 0.230796 -0.565511 -0.0421357
thorax 14.0062 -0.735087 2.80528
lowerneck -5.30634 2.91939 1.31881
upperneck 11.6505 3.50141 0.352995
head 4.85377 1.6904 0.0817358
rclavicle 1.69045e-014 -2.2208e-014
rhumerus -36.0043 -18.0218 -78.6315
rradius 35.708
rwrist -4.20754
rhand -7.3301 -52.1702
rfingers 7.12502
rthumb 18.5533 -81.3054
lclavicle 1.69045e-014 -2.2208e-014
lhumerus -30.2334 1.10775 82.0393
lradius 27.8646
lwrist -2.42333
lhand -20.0896 -10.9508
lfingers 7.12502
lthumb 6.25334 18.9369
rfemur -27.0631 6.29754 21.4125
rtibia 15.1848
rfoot -22.9408 -9.10458
rtoes -18.8208
lfemur -31.9889 -12.0801 -19.6005
ltibia 22.6581
lfoot -12.9341 1.60114
ltoes -35.0396
124
root 16.8892 19.6138 20.9628 -154.261 -8.26257 177.376
lowerback -24.175 -1.35839 -5.14131
upperback 0.300292 -0.554736 -0.0225532
thorax 14.0288 -0.713334 2.70868
lowerneck -5.36871 2.96145 1.32688
upperneck 11.6975 3.55628 0.352701
head 4.88463 1.71779 0.0850602
rclavicle 2.18896e-014 -5.27401e-015
rhumerus -36.0818 -17.9228 -78.5327
rradius 35.8477
rwrist -4.64164
rhand -6.95965 -50.4885
rfingers 7.12502
rthumb 18.9096 -79.5893
lclavicle 2.18896e-014 -5.27401e-015
lhumerus -30.1695 0.893378 82.1403
lradius 27.988
lwrist -2.41985
lhand -19.8154 -11.1687
lfingers 7.12502
lthumb 6.51807 18.711
rfemur -27.3475 6.42311 21.5367
rtibia 15.8336
rfoot -22.1173 -9.40807
rtoes -21.1906
lfemur -32.3588 -12.2095 -19.4104
ltibia 23.3607
lfoot -12.764 1.37213
ltoes -31.6506
